<svg version="1.1" xmlns="http://www.w3.org/2000/svg" xmlns:xlink="http://www.w3.org/1999/xlink" width="36.70084" height="36.70084" viewBox="0,0,36.70084,36.70084"><defs><radialGradient cx="239.93006" cy="180.05829" r="18.35042" gradientUnits="userSpaceOnUse" id="color-1"><stop offset="0" stop-color="#e0ff00"/><stop offset="1" stop-color="#ff9300"/></radialGradient><radialGradient cx="239.90932" cy="179.99176" r="18.35041" gradientUnits="userSpaceOnUse" id="color-2"><stop offset="0" stop-color="#e0ff00"/><stop offset="1" stop-color="#ff9300"/></radialGradient></defs><g transform="translate(-221.64958,-161.64958)"><g data-paper-data="{&quot;isPaintingLayer&quot;:true}" fill-rule="nonzero" stroke="none" stroke-width="0" stroke-linecap="butt" stroke-linejoin="miter" stroke-miterlimit="10" stroke-dasharray="" stroke-dashoffset="0" style="mix-blend-mode: normal"><path d="M221.64959,180c0,0 8.34128,-3.98862 11.40924,-7.05658c3.04873,-3.04873 6.94117,-11.29383 6.94117,-11.29383c0,0 3.99823,8.15304 7.04834,11.20315c3.0666,3.0666 11.30207,7.14726 11.30207,7.14726c0,0 -8.37698,3.9254 -11.44222,6.99064c-3.0515,3.0515 -6.9082,11.35978 -6.9082,11.35978c0,0 -3.88281,-8.43332 -6.94942,-11.49992c-3.05012,-3.05012 -11.401,-6.85049 -11.401,-6.85049z" fill="url(#color-1)"/><path d="M227.0243,167.0243c0,0 8.71856,3.07779 13.05731,3.07779c4.31154,0 12.8941,-3.07779 12.8941,-3.07779c0,0 -2.9379,8.59224 -2.9379,12.90576c0,4.33683 2.9379,13.04565 2.9379,13.04565c0,0 -8.69909,-3.14774 -13.034,-3.14774c-4.31548,0 -12.91741,3.14774 -12.91741,3.14774c0,0 3.2177,-8.70882 3.2177,-13.04565c0,-4.31351 -3.2177,-12.90576 -3.2177,-12.90576z" fill="url(#color-2)"/></g></g></svg>